<mxfile host="app.diagrams.net" modified="2023-02-16T10:40:37.513Z" agent="5.0 (X11; Linux x86_64) AppleWebKit/537.36 (KHTML, like Gecko) Chrome/110.0.0.0 Safari/537.36" etag="mSWnhu55P8JcfUvWouKV" version="20.8.20" type="github">
  <diagram id="SlGQAyXAIa_Ibs_cdTL7" name="第 1 页">
    <mxGraphModel dx="2231" dy="2463" grid="1" gridSize="10" guides="1" tooltips="1" connect="1" arrows="1" fold="1" page="1" pageScale="1" pageWidth="827" pageHeight="1169" math="1" shadow="0">
      <root>
        <mxCell id="0" />
        <mxCell id="1" parent="0" />
        <mxCell id="OhdJKjMLPSLkUOPBoB3H-64" value="" style="rounded=1;whiteSpace=wrap;html=1;fontFamily=Helvetica;fontSize=16;fillColor=none;dashed=1;" vertex="1" parent="1">
          <mxGeometry x="2279" y="-480" width="820" height="120" as="geometry" />
        </mxCell>
        <mxCell id="OhdJKjMLPSLkUOPBoB3H-24" value="" style="rounded=1;whiteSpace=wrap;html=1;fontFamily=Helvetica;fontSize=16;fillColor=none;dashed=1;" vertex="1" parent="1">
          <mxGeometry x="2699" y="-1020" width="400" height="200" as="geometry" />
        </mxCell>
        <mxCell id="OhdJKjMLPSLkUOPBoB3H-23" value="" style="rounded=1;whiteSpace=wrap;html=1;fontFamily=Helvetica;fontSize=16;fillColor=none;dashed=1;" vertex="1" parent="1">
          <mxGeometry x="2280" y="-1020" width="400" height="200" as="geometry" />
        </mxCell>
        <mxCell id="cVe11yx6Q2O1CDadm9Du-27" value="" style="rounded=0;whiteSpace=wrap;html=1;fontSize=16;" parent="1" vertex="1">
          <mxGeometry x="755" y="330" width="1280" height="540" as="geometry" />
        </mxCell>
        <mxCell id="ovte4Cg9hebVTWwPrr68-1" value="&lt;font style=&quot;font-size: 20px;&quot;&gt;交通数据的价值发现方法研究​&lt;/font&gt;" style="rounded=0;whiteSpace=wrap;html=1;fillColor=#e1d5e7;strokeColor=none;fontSize=16;fontFamily=Times New Roman;" parent="1" vertex="1">
          <mxGeometry x="780" y="350" width="1230" height="60" as="geometry" />
        </mxCell>
        <mxCell id="cVe11yx6Q2O1CDadm9Du-20" style="edgeStyle=orthogonalEdgeStyle;rounded=0;orthogonalLoop=1;jettySize=auto;html=1;entryX=0;entryY=0.5;entryDx=0;entryDy=0;" parent="1" source="ovIKTIvtyWdodCo4Q1BT-9" target="cVe11yx6Q2O1CDadm9Du-7" edge="1">
          <mxGeometry relative="1" as="geometry" />
        </mxCell>
        <mxCell id="ovIKTIvtyWdodCo4Q1BT-9" value="关键问题1&lt;br&gt;什么是数据价值？如何量化数据对交通系统的价值增益？" style="rounded=0;whiteSpace=wrap;html=1;fontSize=16;fillColor=#ffe6cc;strokeColor=none;fontFamily=Times New Roman;" parent="1" vertex="1">
          <mxGeometry x="780" y="730" width="450" height="80" as="geometry" />
        </mxCell>
        <mxCell id="ovIKTIvtyWdodCo4Q1BT-21" value="" style="rounded=0;whiteSpace=wrap;html=1;fontFamily=Times New Roman;fontSize=14;fillColor=none;dashed=1;" parent="1" vertex="1">
          <mxGeometry x="780" y="470" width="450" height="200" as="geometry" />
        </mxCell>
        <mxCell id="ovIKTIvtyWdodCo4Q1BT-22" value="&lt;span style=&quot;font-weight: normal;&quot;&gt;子方案2.2：&lt;br&gt;基于交通系统状态优化的数据价值量化指标方法&lt;br&gt;&lt;/span&gt;" style="rounded=0;whiteSpace=wrap;html=1;fillColor=#dae8fc;strokeColor=none;fontSize=16;fontStyle=1;flipH=0;flipV=0;fontFamily=Times New Roman;" parent="1" vertex="1">
          <mxGeometry x="1040" y="520" width="180" height="100" as="geometry" />
        </mxCell>
        <mxCell id="ovIKTIvtyWdodCo4Q1BT-23" value="&lt;b&gt;研究任务1&lt;/b&gt;" style="rounded=0;whiteSpace=wrap;html=1;fontSize=16;fillColor=none;strokeColor=none;fontFamily=Times New Roman;" parent="1" vertex="1">
          <mxGeometry x="780" y="530" width="20" height="60" as="geometry" />
        </mxCell>
        <mxCell id="ovIKTIvtyWdodCo4Q1BT-24" value="数据价值评估建模" style="rounded=0;whiteSpace=wrap;html=1;fontSize=14;fillColor=none;strokeColor=none;fontFamily=Times New Roman;" parent="1" vertex="1">
          <mxGeometry x="800" y="540" width="20" height="60" as="geometry" />
        </mxCell>
        <mxCell id="ovIKTIvtyWdodCo4Q1BT-29" style="edgeStyle=orthogonalEdgeStyle;rounded=0;orthogonalLoop=1;jettySize=auto;html=1;entryX=0;entryY=0.5;entryDx=0;entryDy=0;fontFamily=Times New Roman;fontSize=14;" parent="1" source="ovIKTIvtyWdodCo4Q1BT-28" target="ovIKTIvtyWdodCo4Q1BT-22" edge="1">
          <mxGeometry relative="1" as="geometry" />
        </mxCell>
        <mxCell id="ovIKTIvtyWdodCo4Q1BT-28" value="&lt;span style=&quot;font-weight: normal;&quot;&gt;子方案2.1：&lt;br&gt;&lt;/span&gt;&lt;span style=&quot;font-weight: normal;&quot;&gt;基于信息论的&lt;br&gt;交通数据价值定义&lt;br&gt;&lt;/span&gt;" style="rounded=0;whiteSpace=wrap;html=1;fillColor=#dae8fc;strokeColor=none;fontSize=16;fontStyle=1;flipH=0;flipV=0;fontFamily=Times New Roman;" parent="1" vertex="1">
          <mxGeometry x="830" y="520" width="180" height="100" as="geometry" />
        </mxCell>
        <mxCell id="ovIKTIvtyWdodCo4Q1BT-31" value="" style="shape=flexArrow;endArrow=classic;html=1;rounded=0;fontFamily=Times New Roman;fontSize=14;fillColor=#ffe6cc;strokeColor=none;" parent="1" edge="1">
          <mxGeometry x="0.5" y="-240" width="50" height="50" relative="1" as="geometry">
            <mxPoint x="1010" y="720" as="sourcePoint" />
            <mxPoint x="1010" y="680" as="targetPoint" />
            <mxPoint as="offset" />
          </mxGeometry>
        </mxCell>
        <mxCell id="ovIKTIvtyWdodCo4Q1BT-34" value="" style="shape=flexArrow;endArrow=classic;html=1;rounded=0;fontFamily=Times New Roman;fontSize=14;fillColor=#dae8fc;strokeColor=none;" parent="1" edge="1">
          <mxGeometry x="0.5" y="-240" width="50" height="50" relative="1" as="geometry">
            <mxPoint x="1009.43" y="460" as="sourcePoint" />
            <mxPoint x="1009.43" y="420" as="targetPoint" />
            <mxPoint as="offset" />
          </mxGeometry>
        </mxCell>
        <mxCell id="cVe11yx6Q2O1CDadm9Du-1" value="" style="rounded=0;whiteSpace=wrap;html=1;fontFamily=Times New Roman;fontSize=14;fillColor=none;dashed=1;" parent="1" vertex="1">
          <mxGeometry x="1270" y="470" width="250" height="200" as="geometry" />
        </mxCell>
        <mxCell id="cVe11yx6Q2O1CDadm9Du-3" value="&lt;b&gt;研究任务2&lt;/b&gt;" style="rounded=0;whiteSpace=wrap;html=1;fontSize=16;fillColor=none;strokeColor=none;fontFamily=Times New Roman;" parent="1" vertex="1">
          <mxGeometry x="1270" y="530" width="20" height="60" as="geometry" />
        </mxCell>
        <mxCell id="cVe11yx6Q2O1CDadm9Du-4" value="资源与场景的匹配方法" style="rounded=0;whiteSpace=wrap;html=1;fontSize=14;fillColor=none;strokeColor=none;fontFamily=Times New Roman;" parent="1" vertex="1">
          <mxGeometry x="1290" y="540" width="20" height="60" as="geometry" />
        </mxCell>
        <mxCell id="cVe11yx6Q2O1CDadm9Du-6" value="&lt;span style=&quot;font-weight: normal;&quot;&gt;子方案3.1：&lt;br&gt;&lt;/span&gt;&lt;span style=&quot;font-weight: normal;&quot;&gt;符合DAO的交通数据&lt;br&gt;供需匹配方法&lt;br&gt;&lt;/span&gt;" style="rounded=0;whiteSpace=wrap;html=1;fillColor=#dae8fc;strokeColor=none;fontSize=16;fontStyle=1;flipH=0;flipV=0;fontFamily=Times New Roman;" parent="1" vertex="1">
          <mxGeometry x="1320" y="520" width="180" height="100" as="geometry" />
        </mxCell>
        <mxCell id="cVe11yx6Q2O1CDadm9Du-28" style="edgeStyle=orthogonalEdgeStyle;rounded=0;orthogonalLoop=1;jettySize=auto;html=1;entryX=0;entryY=0.5;entryDx=0;entryDy=0;fontSize=16;" parent="1" source="cVe11yx6Q2O1CDadm9Du-7" target="cVe11yx6Q2O1CDadm9Du-15" edge="1">
          <mxGeometry relative="1" as="geometry" />
        </mxCell>
        <mxCell id="cVe11yx6Q2O1CDadm9Du-7" value="关键问题2&lt;br&gt;自组织的交通系统中，&lt;br&gt;有哪些自组织的数据匹配方式？" style="rounded=0;whiteSpace=wrap;html=1;fontSize=16;fillColor=#ffe6cc;strokeColor=none;fontFamily=Times New Roman;" parent="1" vertex="1">
          <mxGeometry x="1270" y="730" width="250" height="80" as="geometry" />
        </mxCell>
        <mxCell id="cVe11yx6Q2O1CDadm9Du-8" value="" style="shape=flexArrow;endArrow=classic;html=1;rounded=0;fontFamily=Times New Roman;fontSize=14;fillColor=#ffe6cc;strokeColor=none;" parent="1" edge="1">
          <mxGeometry x="0.5" y="-240" width="50" height="50" relative="1" as="geometry">
            <mxPoint x="1409.71" y="720" as="sourcePoint" />
            <mxPoint x="1409.71" y="680" as="targetPoint" />
            <mxPoint as="offset" />
          </mxGeometry>
        </mxCell>
        <mxCell id="cVe11yx6Q2O1CDadm9Du-9" value="" style="rounded=0;whiteSpace=wrap;html=1;fontFamily=Times New Roman;fontSize=14;fillColor=none;dashed=1;" parent="1" vertex="1">
          <mxGeometry x="1560" y="470" width="450" height="200" as="geometry" />
        </mxCell>
        <mxCell id="cVe11yx6Q2O1CDadm9Du-10" value="&lt;span style=&quot;font-weight: normal;&quot;&gt;子方案3.2：&lt;br&gt;数据价值实现模型&lt;br&gt;&lt;/span&gt;" style="rounded=0;whiteSpace=wrap;html=1;fillColor=#dae8fc;strokeColor=none;fontSize=16;fontStyle=1;flipH=0;flipV=0;fontFamily=Times New Roman;" parent="1" vertex="1">
          <mxGeometry x="1820" y="520" width="180" height="100" as="geometry" />
        </mxCell>
        <mxCell id="cVe11yx6Q2O1CDadm9Du-11" value="&lt;b&gt;研究任务3&lt;/b&gt;" style="rounded=0;whiteSpace=wrap;html=1;fontSize=16;fillColor=none;strokeColor=none;fontFamily=Times New Roman;" parent="1" vertex="1">
          <mxGeometry x="1560" y="530" width="20" height="60" as="geometry" />
        </mxCell>
        <mxCell id="cVe11yx6Q2O1CDadm9Du-12" value="交通数据价值实现模型" style="rounded=0;whiteSpace=wrap;html=1;fontSize=14;fillColor=none;strokeColor=none;fontFamily=Times New Roman;" parent="1" vertex="1">
          <mxGeometry x="1580" y="540" width="20" height="60" as="geometry" />
        </mxCell>
        <mxCell id="cVe11yx6Q2O1CDadm9Du-13" style="edgeStyle=orthogonalEdgeStyle;rounded=0;orthogonalLoop=1;jettySize=auto;html=1;entryX=0;entryY=0.5;entryDx=0;entryDy=0;fontFamily=Times New Roman;fontSize=14;" parent="1" source="cVe11yx6Q2O1CDadm9Du-14" target="cVe11yx6Q2O1CDadm9Du-10" edge="1">
          <mxGeometry relative="1" as="geometry" />
        </mxCell>
        <mxCell id="cVe11yx6Q2O1CDadm9Du-14" value="&lt;span style=&quot;font-weight: normal;&quot;&gt;子方案3.1：&lt;br&gt;&lt;/span&gt;&lt;span style=&quot;font-weight: normal;&quot;&gt;数据激励机制构建&lt;br&gt;&lt;/span&gt;" style="rounded=0;whiteSpace=wrap;html=1;fillColor=#dae8fc;strokeColor=none;fontSize=16;fontStyle=1;flipH=0;flipV=0;fontFamily=Times New Roman;" parent="1" vertex="1">
          <mxGeometry x="1610" y="520" width="180" height="100" as="geometry" />
        </mxCell>
        <mxCell id="cVe11yx6Q2O1CDadm9Du-15" value="关键问题3&lt;br&gt;如何选择最优匹配方式，&lt;br&gt;变现数据价值，达到社会增益最大化？" style="rounded=0;whiteSpace=wrap;html=1;fontSize=16;fillColor=#ffe6cc;strokeColor=none;fontFamily=Times New Roman;" parent="1" vertex="1">
          <mxGeometry x="1560" y="730" width="450" height="80" as="geometry" />
        </mxCell>
        <mxCell id="cVe11yx6Q2O1CDadm9Du-16" value="" style="shape=flexArrow;endArrow=classic;html=1;rounded=0;fontFamily=Times New Roman;fontSize=14;fillColor=#ffe6cc;strokeColor=none;" parent="1" edge="1">
          <mxGeometry x="0.5" y="-240" width="50" height="50" relative="1" as="geometry">
            <mxPoint x="1804.43" y="720" as="sourcePoint" />
            <mxPoint x="1804.43" y="680" as="targetPoint" />
            <mxPoint as="offset" />
          </mxGeometry>
        </mxCell>
        <mxCell id="cVe11yx6Q2O1CDadm9Du-19" style="edgeStyle=orthogonalEdgeStyle;rounded=0;orthogonalLoop=1;jettySize=auto;html=1;" parent="1" source="cVe11yx6Q2O1CDadm9Du-18" edge="1">
          <mxGeometry relative="1" as="geometry">
            <mxPoint x="750" y="770" as="targetPoint" />
          </mxGeometry>
        </mxCell>
        <mxCell id="cVe11yx6Q2O1CDadm9Du-18" value="关键问题0&lt;br&gt;面对海量的高频交通数据，有限的算力资源，如何最大化数据价值？" style="rounded=0;whiteSpace=wrap;html=1;fontSize=16;fillColor=#ffe6cc;strokeColor=none;fontFamily=Times New Roman;" parent="1" vertex="1">
          <mxGeometry x="470" y="730" width="260" height="80" as="geometry" />
        </mxCell>
        <mxCell id="cVe11yx6Q2O1CDadm9Du-21" value="目的" style="text;html=1;align=center;verticalAlign=middle;resizable=0;points=[];autosize=1;strokeColor=none;fillColor=none;fontSize=16;" parent="1" vertex="1">
          <mxGeometry x="560" y="830" width="60" height="30" as="geometry" />
        </mxCell>
        <mxCell id="cVe11yx6Q2O1CDadm9Du-22" value="指标" style="text;html=1;align=center;verticalAlign=middle;resizable=0;points=[];autosize=1;strokeColor=none;fillColor=none;fontSize=16;" parent="1" vertex="1">
          <mxGeometry x="975" y="830" width="60" height="30" as="geometry" />
        </mxCell>
        <mxCell id="cVe11yx6Q2O1CDadm9Du-23" value="方法" style="text;html=1;align=center;verticalAlign=middle;resizable=0;points=[];autosize=1;strokeColor=none;fillColor=none;fontSize=16;" parent="1" vertex="1">
          <mxGeometry x="1365" y="830" width="60" height="30" as="geometry" />
        </mxCell>
        <mxCell id="cVe11yx6Q2O1CDadm9Du-24" value="构件" style="text;html=1;align=center;verticalAlign=middle;resizable=0;points=[];autosize=1;strokeColor=none;fillColor=none;fontSize=16;" parent="1" vertex="1">
          <mxGeometry x="1770" y="830" width="60" height="30" as="geometry" />
        </mxCell>
        <mxCell id="cVe11yx6Q2O1CDadm9Du-25" value="" style="shape=flexArrow;endArrow=classic;html=1;rounded=0;fontFamily=Times New Roman;fontSize=14;fillColor=#dae8fc;strokeColor=none;" parent="1" edge="1">
          <mxGeometry x="0.5" y="-240" width="50" height="50" relative="1" as="geometry">
            <mxPoint x="1394.58" y="459.9999999999998" as="sourcePoint" />
            <mxPoint x="1394.58" y="419.9999999999998" as="targetPoint" />
            <mxPoint as="offset" />
          </mxGeometry>
        </mxCell>
        <mxCell id="cVe11yx6Q2O1CDadm9Du-26" value="" style="shape=flexArrow;endArrow=classic;html=1;rounded=0;fontFamily=Times New Roman;fontSize=14;fillColor=#dae8fc;strokeColor=none;" parent="1" edge="1">
          <mxGeometry x="0.5" y="-240" width="50" height="50" relative="1" as="geometry">
            <mxPoint x="1790" y="459.9999999999998" as="sourcePoint" />
            <mxPoint x="1790" y="419.9999999999998" as="targetPoint" />
            <mxPoint as="offset" />
          </mxGeometry>
        </mxCell>
        <mxCell id="cVe11yx6Q2O1CDadm9Du-33" style="edgeStyle=none;rounded=0;orthogonalLoop=1;jettySize=auto;html=1;entryX=0.5;entryY=0;entryDx=0;entryDy=0;fontSize=16;exitX=0.5;exitY=1;exitDx=0;exitDy=0;" parent="1" source="cVe11yx6Q2O1CDadm9Du-29" target="cVe11yx6Q2O1CDadm9Du-30" edge="1">
          <mxGeometry relative="1" as="geometry" />
        </mxCell>
        <mxCell id="cVe11yx6Q2O1CDadm9Du-29" value="数据价值&lt;br&gt;评价指标" style="rounded=0;whiteSpace=wrap;html=1;fontSize=16;" parent="1" vertex="1">
          <mxGeometry x="1260" y="1220" width="120" height="60" as="geometry" />
        </mxCell>
        <mxCell id="cVe11yx6Q2O1CDadm9Du-34" style="edgeStyle=none;rounded=0;orthogonalLoop=1;jettySize=auto;html=1;entryX=0;entryY=0.5;entryDx=0;entryDy=0;fontSize=16;" parent="1" source="cVe11yx6Q2O1CDadm9Du-30" target="cVe11yx6Q2O1CDadm9Du-31" edge="1">
          <mxGeometry relative="1" as="geometry" />
        </mxCell>
        <mxCell id="cVe11yx6Q2O1CDadm9Du-30" value="数据编程" style="rounded=0;whiteSpace=wrap;html=1;fontSize=16;" parent="1" vertex="1">
          <mxGeometry x="1121" y="1390" width="120" height="60" as="geometry" />
        </mxCell>
        <mxCell id="cVe11yx6Q2O1CDadm9Du-32" style="rounded=0;orthogonalLoop=1;jettySize=auto;html=1;entryX=0.5;entryY=1;entryDx=0;entryDy=0;fontSize=16;" parent="1" source="cVe11yx6Q2O1CDadm9Du-31" target="cVe11yx6Q2O1CDadm9Du-29" edge="1">
          <mxGeometry relative="1" as="geometry" />
        </mxCell>
        <mxCell id="cVe11yx6Q2O1CDadm9Du-31" value="数据价值发现" style="rounded=0;whiteSpace=wrap;html=1;fontSize=16;" parent="1" vertex="1">
          <mxGeometry x="1400" y="1390" width="120" height="60" as="geometry" />
        </mxCell>
        <mxCell id="cVe11yx6Q2O1CDadm9Du-35" value="prove" style="text;html=1;align=center;verticalAlign=middle;resizable=0;points=[];autosize=1;strokeColor=none;fillColor=none;fontSize=16;" parent="1" vertex="1">
          <mxGeometry x="1370" y="1305" width="60" height="30" as="geometry" />
        </mxCell>
        <mxCell id="cVe11yx6Q2O1CDadm9Du-36" value="basis" style="text;html=1;align=center;verticalAlign=middle;resizable=0;points=[];autosize=1;strokeColor=none;fillColor=none;fontSize=16;" parent="1" vertex="1">
          <mxGeometry x="1200" y="1305" width="60" height="30" as="geometry" />
        </mxCell>
        <mxCell id="cVe11yx6Q2O1CDadm9Du-37" value="basis" style="text;html=1;align=center;verticalAlign=middle;resizable=0;points=[];autosize=1;strokeColor=none;fillColor=none;fontSize=16;" parent="1" vertex="1">
          <mxGeometry x="1290" y="1420" width="60" height="30" as="geometry" />
        </mxCell>
        <mxCell id="cVe11yx6Q2O1CDadm9Du-38" value="" style="rounded=0;whiteSpace=wrap;html=1;fontSize=16;" parent="1" vertex="1">
          <mxGeometry x="2565" y="330" width="1065" height="540" as="geometry" />
        </mxCell>
        <mxCell id="cVe11yx6Q2O1CDadm9Du-64" value="" style="shape=flexArrow;endArrow=classic;html=1;rounded=0;fontFamily=Times New Roman;fontSize=14;fillColor=#ffe6cc;strokeColor=none;" parent="cVe11yx6Q2O1CDadm9Du-38" edge="1">
          <mxGeometry x="0.5" y="-240" width="50" height="50" relative="1" as="geometry">
            <mxPoint x="915.0013438735182" y="390" as="sourcePoint" />
            <mxPoint x="915.0013438735182" y="350" as="targetPoint" />
            <mxPoint as="offset" />
          </mxGeometry>
        </mxCell>
        <mxCell id="cVe11yx6Q2O1CDadm9Du-72" value="" style="shape=flexArrow;endArrow=classic;html=1;rounded=0;fontFamily=Times New Roman;fontSize=14;fillColor=#dae8fc;strokeColor=none;" parent="cVe11yx6Q2O1CDadm9Du-38" edge="1">
          <mxGeometry x="0.5" y="-240" width="50" height="50" relative="1" as="geometry">
            <mxPoint x="905.0023715415019" y="129.99999999999977" as="sourcePoint" />
            <mxPoint x="905.0023715415019" y="89.99999999999977" as="targetPoint" />
            <mxPoint as="offset" />
          </mxGeometry>
        </mxCell>
        <mxCell id="cVe11yx6Q2O1CDadm9Du-39" value="&lt;font style=&quot;font-size: 20px;&quot;&gt;交通数据的价值发现方法研究​&lt;/font&gt;" style="rounded=0;whiteSpace=wrap;html=1;fillColor=#e1d5e7;strokeColor=none;fontSize=16;fontFamily=Times New Roman;" parent="1" vertex="1">
          <mxGeometry x="2590" y="350" width="1010" height="60" as="geometry" />
        </mxCell>
        <mxCell id="cVe11yx6Q2O1CDadm9Du-40" style="edgeStyle=orthogonalEdgeStyle;rounded=0;orthogonalLoop=1;jettySize=auto;html=1;entryX=0;entryY=0.5;entryDx=0;entryDy=0;" parent="1" source="cVe11yx6Q2O1CDadm9Du-41" target="cVe11yx6Q2O1CDadm9Du-55" edge="1">
          <mxGeometry relative="1" as="geometry" />
        </mxCell>
        <mxCell id="cVe11yx6Q2O1CDadm9Du-41" value="关键问题1&lt;br&gt;什么是数据价值？如何区分高价值和低价值？" style="rounded=0;whiteSpace=wrap;html=1;fontSize=16;fillColor=#ffe6cc;strokeColor=none;fontFamily=Times New Roman;" parent="1" vertex="1">
          <mxGeometry x="2590" y="730" width="410" height="80" as="geometry" />
        </mxCell>
        <mxCell id="cVe11yx6Q2O1CDadm9Du-42" value="" style="rounded=0;whiteSpace=wrap;html=1;fontFamily=Times New Roman;fontSize=14;fillColor=none;dashed=1;" parent="1" vertex="1">
          <mxGeometry x="2590" y="470" width="700" height="200" as="geometry" />
        </mxCell>
        <mxCell id="cVe11yx6Q2O1CDadm9Du-73" style="edgeStyle=none;rounded=0;orthogonalLoop=1;jettySize=auto;html=1;fontSize=16;" parent="1" source="cVe11yx6Q2O1CDadm9Du-43" target="cVe11yx6Q2O1CDadm9Du-53" edge="1">
          <mxGeometry relative="1" as="geometry" />
        </mxCell>
        <mxCell id="cVe11yx6Q2O1CDadm9Du-43" value="&lt;span style=&quot;font-weight: normal;&quot;&gt;子方案2.2：&lt;br&gt;基于切片的交通数据价值评估方法&amp;nbsp;&lt;br&gt;&lt;/span&gt;" style="rounded=0;whiteSpace=wrap;html=1;fillColor=#dae8fc;strokeColor=none;fontSize=16;fontStyle=1;flipH=0;flipV=0;fontFamily=Times New Roman;" parent="1" vertex="1">
          <mxGeometry x="2850" y="520" width="180" height="100" as="geometry" />
        </mxCell>
        <mxCell id="cVe11yx6Q2O1CDadm9Du-44" value="&lt;b&gt;研究任务1&lt;/b&gt;" style="rounded=0;whiteSpace=wrap;html=1;fontSize=16;fillColor=none;strokeColor=none;fontFamily=Times New Roman;" parent="1" vertex="1">
          <mxGeometry x="2590" y="530" width="20" height="60" as="geometry" />
        </mxCell>
        <mxCell id="cVe11yx6Q2O1CDadm9Du-45" value="数据价值评估建模" style="rounded=0;whiteSpace=wrap;html=1;fontSize=14;fillColor=none;strokeColor=none;fontFamily=Times New Roman;" parent="1" vertex="1">
          <mxGeometry x="2610" y="540" width="20" height="60" as="geometry" />
        </mxCell>
        <mxCell id="cVe11yx6Q2O1CDadm9Du-46" style="edgeStyle=orthogonalEdgeStyle;rounded=0;orthogonalLoop=1;jettySize=auto;html=1;entryX=0;entryY=0.5;entryDx=0;entryDy=0;fontFamily=Times New Roman;fontSize=14;" parent="1" source="cVe11yx6Q2O1CDadm9Du-47" target="cVe11yx6Q2O1CDadm9Du-43" edge="1">
          <mxGeometry relative="1" as="geometry" />
        </mxCell>
        <mxCell id="cVe11yx6Q2O1CDadm9Du-47" value="&lt;span style=&quot;font-weight: normal;&quot;&gt;子方案1.1：&lt;br&gt;&lt;/span&gt;&lt;span style=&quot;font-weight: normal;&quot;&gt;基于信息论的&lt;br&gt;交通数据价值定义&lt;br&gt;&lt;/span&gt;" style="rounded=0;whiteSpace=wrap;html=1;fillColor=#dae8fc;strokeColor=none;fontSize=16;fontStyle=1;flipH=0;flipV=0;fontFamily=Times New Roman;" parent="1" vertex="1">
          <mxGeometry x="2640" y="520" width="180" height="100" as="geometry" />
        </mxCell>
        <mxCell id="cVe11yx6Q2O1CDadm9Du-48" value="" style="shape=flexArrow;endArrow=classic;html=1;rounded=0;fontFamily=Times New Roman;fontSize=14;fillColor=#ffe6cc;strokeColor=none;" parent="1" edge="1">
          <mxGeometry x="0.5" y="-240" width="50" height="50" relative="1" as="geometry">
            <mxPoint x="2809.9999999999995" y="720" as="sourcePoint" />
            <mxPoint x="2809.9999999999995" y="680" as="targetPoint" />
            <mxPoint as="offset" />
          </mxGeometry>
        </mxCell>
        <mxCell id="cVe11yx6Q2O1CDadm9Du-49" value="" style="shape=flexArrow;endArrow=classic;html=1;rounded=0;fontFamily=Times New Roman;fontSize=14;fillColor=#dae8fc;strokeColor=none;" parent="1" edge="1">
          <mxGeometry x="0.5" y="-240" width="50" height="50" relative="1" as="geometry">
            <mxPoint x="2939.4099999999994" y="460" as="sourcePoint" />
            <mxPoint x="2939.4099999999994" y="420" as="targetPoint" />
            <mxPoint as="offset" />
          </mxGeometry>
        </mxCell>
        <mxCell id="cVe11yx6Q2O1CDadm9Du-53" value="&lt;span style=&quot;font-weight: normal;&quot;&gt;子方案2.3：&lt;br&gt;基于系统贡献度的交通数据价值评估方法&lt;br&gt;&lt;/span&gt;" style="rounded=0;whiteSpace=wrap;html=1;fillColor=#dae8fc;strokeColor=none;fontSize=16;fontStyle=1;flipH=0;flipV=0;fontFamily=Times New Roman;" parent="1" vertex="1">
          <mxGeometry x="3070" y="520" width="180" height="100" as="geometry" />
        </mxCell>
        <mxCell id="cVe11yx6Q2O1CDadm9Du-54" style="edgeStyle=orthogonalEdgeStyle;rounded=0;orthogonalLoop=1;jettySize=auto;html=1;entryX=0;entryY=0.5;entryDx=0;entryDy=0;fontSize=16;" parent="1" source="cVe11yx6Q2O1CDadm9Du-55" target="cVe11yx6Q2O1CDadm9Du-63" edge="1">
          <mxGeometry relative="1" as="geometry" />
        </mxCell>
        <mxCell id="cVe11yx6Q2O1CDadm9Du-55" value="关键问题2&lt;br&gt;如何量化评价数据对&lt;br&gt;交通模型、交通系统的价值？" style="rounded=0;whiteSpace=wrap;html=1;fontSize=16;fillColor=#ffe6cc;strokeColor=none;fontFamily=Times New Roman;" parent="1" vertex="1">
          <mxGeometry x="3040" y="730" width="250" height="80" as="geometry" />
        </mxCell>
        <mxCell id="cVe11yx6Q2O1CDadm9Du-56" value="" style="shape=flexArrow;endArrow=classic;html=1;rounded=0;fontFamily=Times New Roman;fontSize=14;fillColor=#ffe6cc;strokeColor=none;" parent="1" edge="1">
          <mxGeometry x="0.5" y="-240" width="50" height="50" relative="1" as="geometry">
            <mxPoint x="3159.4099999999994" y="720" as="sourcePoint" />
            <mxPoint x="3159.4099999999994" y="680" as="targetPoint" />
            <mxPoint as="offset" />
          </mxGeometry>
        </mxCell>
        <mxCell id="cVe11yx6Q2O1CDadm9Du-57" value="" style="rounded=0;whiteSpace=wrap;html=1;fontFamily=Times New Roman;fontSize=14;fillColor=none;dashed=1;" parent="1" vertex="1">
          <mxGeometry x="3350" y="470" width="250" height="200" as="geometry" />
        </mxCell>
        <mxCell id="cVe11yx6Q2O1CDadm9Du-59" value="&lt;b&gt;研究任务2&lt;/b&gt;" style="rounded=0;whiteSpace=wrap;html=1;fontSize=16;fillColor=none;strokeColor=none;fontFamily=Times New Roman;" parent="1" vertex="1">
          <mxGeometry x="3350" y="530" width="20" height="60" as="geometry" />
        </mxCell>
        <mxCell id="cVe11yx6Q2O1CDadm9Du-60" value="交通数据编程方法" style="rounded=0;whiteSpace=wrap;html=1;fontSize=14;fillColor=none;strokeColor=none;fontFamily=Times New Roman;" parent="1" vertex="1">
          <mxGeometry x="3370" y="540" width="20" height="60" as="geometry" />
        </mxCell>
        <mxCell id="cVe11yx6Q2O1CDadm9Du-62" value="&lt;span style=&quot;font-weight: normal;&quot;&gt;子方案3.1：&lt;br&gt;基于主动学习的交通数据编程方法&lt;br&gt;&lt;/span&gt;" style="rounded=0;whiteSpace=wrap;html=1;fillColor=#dae8fc;strokeColor=none;fontSize=16;fontStyle=1;flipH=0;flipV=0;fontFamily=Times New Roman;" parent="1" vertex="1">
          <mxGeometry x="3400" y="520" width="180" height="100" as="geometry" />
        </mxCell>
        <mxCell id="cVe11yx6Q2O1CDadm9Du-63" value="关键问题3&lt;br&gt;基于数据价值指标，&lt;br&gt;如何最大化实现数据价值？" style="rounded=0;whiteSpace=wrap;html=1;fontSize=16;fillColor=#ffe6cc;strokeColor=none;fontFamily=Times New Roman;" parent="1" vertex="1">
          <mxGeometry x="3350" y="730" width="250" height="80" as="geometry" />
        </mxCell>
        <mxCell id="tTahqNga5wB2Y6Uy57lC-1" value="" style="rounded=0;whiteSpace=wrap;html=1;fontSize=16;" parent="1" vertex="1">
          <mxGeometry x="767.5" y="-610" width="1072.5" height="540" as="geometry" />
        </mxCell>
        <mxCell id="tTahqNga5wB2Y6Uy57lC-2" value="&lt;font style=&quot;font-size: 20px;&quot;&gt;面向交通状态评价的数据生成方法研究&lt;/font&gt;" style="rounded=0;whiteSpace=wrap;html=1;fillColor=#e1d5e7;strokeColor=none;fontSize=16;fontFamily=Times New Roman;" parent="1" vertex="1">
          <mxGeometry x="792.5" y="-590" width="1027.5" height="60" as="geometry" />
        </mxCell>
        <mxCell id="tTahqNga5wB2Y6Uy57lC-3" style="edgeStyle=orthogonalEdgeStyle;rounded=0;orthogonalLoop=1;jettySize=auto;html=1;entryX=0;entryY=0.5;entryDx=0;entryDy=0;" parent="1" source="tTahqNga5wB2Y6Uy57lC-4" target="tTahqNga5wB2Y6Uy57lC-18" edge="1">
          <mxGeometry relative="1" as="geometry" />
        </mxCell>
        <mxCell id="tTahqNga5wB2Y6Uy57lC-4" value="关键问题1&lt;br&gt;如何评价城市路网的交通状态?&lt;br&gt;在状态评价中数据价值有多大？" style="rounded=0;whiteSpace=wrap;html=1;fontSize=16;fillColor=#ffe6cc;strokeColor=none;fontFamily=Times New Roman;" parent="1" vertex="1">
          <mxGeometry x="792.5" y="-210" width="450" height="80" as="geometry" />
        </mxCell>
        <mxCell id="tTahqNga5wB2Y6Uy57lC-5" value="" style="rounded=0;whiteSpace=wrap;html=1;fontFamily=Times New Roman;fontSize=14;fillColor=none;dashed=1;" parent="1" vertex="1">
          <mxGeometry x="792.5" y="-470" width="450" height="200" as="geometry" />
        </mxCell>
        <mxCell id="tTahqNga5wB2Y6Uy57lC-6" value="&lt;span style=&quot;font-weight: normal;&quot;&gt;子方案1.2：&lt;br&gt;交通状态评价模型中&lt;br&gt;的原始数据价值评估方法&lt;br&gt;&lt;/span&gt;" style="rounded=0;whiteSpace=wrap;html=1;fillColor=#dae8fc;strokeColor=none;fontSize=16;fontStyle=1;flipH=0;flipV=0;fontFamily=Times New Roman;" parent="1" vertex="1">
          <mxGeometry x="1052.5" y="-420" width="180" height="100" as="geometry" />
        </mxCell>
        <mxCell id="tTahqNga5wB2Y6Uy57lC-7" value="&lt;b&gt;研究任务1&lt;/b&gt;" style="rounded=0;whiteSpace=wrap;html=1;fontSize=16;fillColor=none;strokeColor=none;fontFamily=Times New Roman;" parent="1" vertex="1">
          <mxGeometry x="792.5" y="-410" width="20" height="60" as="geometry" />
        </mxCell>
        <mxCell id="tTahqNga5wB2Y6Uy57lC-8" value="数据→交通状态/数据状态" style="rounded=0;whiteSpace=wrap;html=1;fontSize=14;fillColor=none;strokeColor=none;fontFamily=Times New Roman;" parent="1" vertex="1">
          <mxGeometry x="812.5" y="-400" width="20" height="60" as="geometry" />
        </mxCell>
        <mxCell id="tTahqNga5wB2Y6Uy57lC-9" style="edgeStyle=orthogonalEdgeStyle;rounded=0;orthogonalLoop=1;jettySize=auto;html=1;entryX=0;entryY=0.5;entryDx=0;entryDy=0;fontFamily=Times New Roman;fontSize=14;" parent="1" source="tTahqNga5wB2Y6Uy57lC-10" target="tTahqNga5wB2Y6Uy57lC-6" edge="1">
          <mxGeometry relative="1" as="geometry" />
        </mxCell>
        <mxCell id="tTahqNga5wB2Y6Uy57lC-10" value="&lt;span style=&quot;font-weight: normal;&quot;&gt;子方案1.1：&lt;br&gt;&lt;/span&gt;&lt;span style=&quot;font-weight: normal;&quot;&gt;基于模型的&lt;br&gt;交通状态评价方法&lt;br&gt;&lt;/span&gt;" style="rounded=0;whiteSpace=wrap;html=1;fillColor=#dae8fc;strokeColor=none;fontSize=16;fontStyle=1;flipH=0;flipV=0;fontFamily=Times New Roman;" parent="1" vertex="1">
          <mxGeometry x="842.5" y="-420" width="180" height="100" as="geometry" />
        </mxCell>
        <mxCell id="tTahqNga5wB2Y6Uy57lC-11" value="" style="shape=flexArrow;endArrow=classic;html=1;rounded=0;fontFamily=Times New Roman;fontSize=14;fillColor=#ffe6cc;strokeColor=none;" parent="1" edge="1">
          <mxGeometry x="0.5" y="-240" width="50" height="50" relative="1" as="geometry">
            <mxPoint x="1022.5" y="-220" as="sourcePoint" />
            <mxPoint x="1022.5" y="-260" as="targetPoint" />
            <mxPoint as="offset" />
          </mxGeometry>
        </mxCell>
        <mxCell id="tTahqNga5wB2Y6Uy57lC-12" value="" style="shape=flexArrow;endArrow=classic;html=1;rounded=0;fontFamily=Times New Roman;fontSize=14;fillColor=#dae8fc;strokeColor=none;" parent="1" edge="1">
          <mxGeometry x="0.5" y="-240" width="50" height="50" relative="1" as="geometry">
            <mxPoint x="1021.93" y="-480" as="sourcePoint" />
            <mxPoint x="1021.93" y="-520" as="targetPoint" />
            <mxPoint as="offset" />
          </mxGeometry>
        </mxCell>
        <mxCell id="tTahqNga5wB2Y6Uy57lC-13" value="" style="rounded=0;whiteSpace=wrap;html=1;fontFamily=Times New Roman;fontSize=14;fillColor=none;dashed=1;" parent="1" vertex="1">
          <mxGeometry x="1282.5" y="-470" width="250" height="200" as="geometry" />
        </mxCell>
        <mxCell id="tTahqNga5wB2Y6Uy57lC-14" value="&lt;b&gt;研究任务2&lt;/b&gt;" style="rounded=0;whiteSpace=wrap;html=1;fontSize=16;fillColor=none;strokeColor=none;fontFamily=Times New Roman;" parent="1" vertex="1">
          <mxGeometry x="1282.5" y="-410" width="20" height="60" as="geometry" />
        </mxCell>
        <mxCell id="tTahqNga5wB2Y6Uy57lC-15" value="交通状态→数据" style="rounded=0;whiteSpace=wrap;html=1;fontSize=14;fillColor=none;strokeColor=none;fontFamily=Times New Roman;" parent="1" vertex="1">
          <mxGeometry x="1302.5" y="-400" width="20" height="60" as="geometry" />
        </mxCell>
        <mxCell id="tTahqNga5wB2Y6Uy57lC-16" value="&lt;span style=&quot;font-weight: normal;&quot;&gt;子方案2：&lt;br&gt;基于交通状态的数据生成模型&lt;/span&gt;" style="rounded=0;whiteSpace=wrap;html=1;fillColor=#dae8fc;strokeColor=none;fontSize=16;fontStyle=1;flipH=0;flipV=0;fontFamily=Times New Roman;" parent="1" vertex="1">
          <mxGeometry x="1332.5" y="-420" width="180" height="100" as="geometry" />
        </mxCell>
        <mxCell id="tTahqNga5wB2Y6Uy57lC-17" style="edgeStyle=orthogonalEdgeStyle;rounded=0;orthogonalLoop=1;jettySize=auto;html=1;entryX=0;entryY=0.5;entryDx=0;entryDy=0;fontSize=16;" parent="1" source="tTahqNga5wB2Y6Uy57lC-18" target="tTahqNga5wB2Y6Uy57lC-26" edge="1">
          <mxGeometry relative="1" as="geometry" />
        </mxCell>
        <mxCell id="tTahqNga5wB2Y6Uy57lC-18" value="关键问题2&lt;br&gt;如何生成符合实际交通状态的数据？" style="rounded=0;whiteSpace=wrap;html=1;fontSize=16;fillColor=#ffe6cc;strokeColor=none;fontFamily=Times New Roman;" parent="1" vertex="1">
          <mxGeometry x="1282.5" y="-210" width="250" height="80" as="geometry" />
        </mxCell>
        <mxCell id="tTahqNga5wB2Y6Uy57lC-19" value="" style="shape=flexArrow;endArrow=classic;html=1;rounded=0;fontFamily=Times New Roman;fontSize=14;fillColor=#ffe6cc;strokeColor=none;" parent="1" edge="1">
          <mxGeometry x="0.5" y="-240" width="50" height="50" relative="1" as="geometry">
            <mxPoint x="1422.21" y="-220" as="sourcePoint" />
            <mxPoint x="1422.21" y="-260" as="targetPoint" />
            <mxPoint as="offset" />
          </mxGeometry>
        </mxCell>
        <mxCell id="tTahqNga5wB2Y6Uy57lC-20" value="" style="rounded=0;whiteSpace=wrap;html=1;fontFamily=Times New Roman;fontSize=14;fillColor=none;dashed=1;" parent="1" vertex="1">
          <mxGeometry x="1572.5" y="-470" width="247.5" height="200" as="geometry" />
        </mxCell>
        <mxCell id="tTahqNga5wB2Y6Uy57lC-22" value="&lt;b&gt;研究任务3&lt;/b&gt;" style="rounded=0;whiteSpace=wrap;html=1;fontSize=16;fillColor=none;strokeColor=none;fontFamily=Times New Roman;" parent="1" vertex="1">
          <mxGeometry x="1572.5" y="-410" width="20" height="60" as="geometry" />
        </mxCell>
        <mxCell id="tTahqNga5wB2Y6Uy57lC-23" value="交通状态+ 数据状态→数据" style="rounded=0;whiteSpace=wrap;html=1;fontSize=14;fillColor=none;strokeColor=none;fontFamily=Times New Roman;" parent="1" vertex="1">
          <mxGeometry x="1592.5" y="-400" width="20" height="60" as="geometry" />
        </mxCell>
        <mxCell id="tTahqNga5wB2Y6Uy57lC-25" value="&lt;span style=&quot;font-weight: normal;&quot;&gt;子方案3.1：&lt;br&gt;基于价值评估的数据生成模型优化技术&lt;br&gt;&lt;/span&gt;" style="rounded=0;whiteSpace=wrap;html=1;fillColor=#dae8fc;strokeColor=none;fontSize=16;fontStyle=1;flipH=0;flipV=0;fontFamily=Times New Roman;" parent="1" vertex="1">
          <mxGeometry x="1622.5" y="-420" width="180" height="100" as="geometry" />
        </mxCell>
        <mxCell id="tTahqNga5wB2Y6Uy57lC-26" value="关键问题3&lt;br&gt;根据新数据，如何优化数据生成？" style="rounded=0;whiteSpace=wrap;html=1;fontSize=16;fillColor=#ffe6cc;strokeColor=none;fontFamily=Times New Roman;" parent="1" vertex="1">
          <mxGeometry x="1572.5" y="-210" width="247.5" height="80" as="geometry" />
        </mxCell>
        <mxCell id="tTahqNga5wB2Y6Uy57lC-27" value="" style="shape=flexArrow;endArrow=classic;html=1;rounded=0;fontFamily=Times New Roman;fontSize=14;fillColor=#ffe6cc;strokeColor=none;" parent="1" edge="1">
          <mxGeometry x="0.5" y="-240" width="50" height="50" relative="1" as="geometry">
            <mxPoint x="1699.47" y="-220" as="sourcePoint" />
            <mxPoint x="1699.47" y="-260" as="targetPoint" />
            <mxPoint as="offset" />
          </mxGeometry>
        </mxCell>
        <mxCell id="tTahqNga5wB2Y6Uy57lC-32" value="" style="shape=flexArrow;endArrow=classic;html=1;rounded=0;fontFamily=Times New Roman;fontSize=14;fillColor=#dae8fc;strokeColor=none;" parent="1" edge="1">
          <mxGeometry x="0.5" y="-240" width="50" height="50" relative="1" as="geometry">
            <mxPoint x="1407.08" y="-480.0000000000002" as="sourcePoint" />
            <mxPoint x="1407.08" y="-520.0000000000002" as="targetPoint" />
            <mxPoint as="offset" />
          </mxGeometry>
        </mxCell>
        <mxCell id="tTahqNga5wB2Y6Uy57lC-33" value="" style="shape=flexArrow;endArrow=classic;html=1;rounded=0;fontFamily=Times New Roman;fontSize=14;fillColor=#dae8fc;strokeColor=none;" parent="1" edge="1">
          <mxGeometry x="0.5" y="-240" width="50" height="50" relative="1" as="geometry">
            <mxPoint x="1695.82" y="-480.0000000000002" as="sourcePoint" />
            <mxPoint x="1695.82" y="-520.0000000000002" as="targetPoint" />
            <mxPoint as="offset" />
          </mxGeometry>
        </mxCell>
        <mxCell id="tTahqNga5wB2Y6Uy57lC-36" value="" style="sketch=0;outlineConnect=0;fontColor=#232F3E;gradientColor=none;fillColor=#D45B07;strokeColor=none;dashed=0;verticalLabelPosition=bottom;verticalAlign=top;align=center;html=1;fontSize=12;fontStyle=0;aspect=fixed;pointerEvents=1;shape=mxgraph.aws4.braket_tensor_network;" parent="1" vertex="1">
          <mxGeometry x="140" y="-980" width="370" height="370" as="geometry" />
        </mxCell>
        <mxCell id="OhdJKjMLPSLkUOPBoB3H-7" value="&lt;span style=&quot;font-weight: normal;&quot;&gt;2：数据价值评估方法&lt;br&gt;&lt;/span&gt;" style="rounded=1;whiteSpace=wrap;html=1;fillColor=#dae8fc;strokeColor=none;fontSize=16;fontStyle=1;flipH=0;flipV=0;fontFamily=Helvetica;" vertex="1" parent="1">
          <mxGeometry x="2509" y="-970" width="160" height="80" as="geometry" />
        </mxCell>
        <mxCell id="OhdJKjMLPSLkUOPBoB3H-11" value="&lt;span style=&quot;font-weight: normal;&quot;&gt;1：&lt;/span&gt;&lt;span style=&quot;font-weight: normal;&quot;&gt;基于模型的&lt;br&gt;交通状态评价方法&lt;br&gt;&lt;/span&gt;" style="rounded=1;whiteSpace=wrap;html=1;fillColor=#dae8fc;strokeColor=none;fontSize=16;fontStyle=1;flipH=0;flipV=0;fontFamily=Helvetica;" vertex="1" parent="1">
          <mxGeometry x="2329" y="-970" width="160" height="80" as="geometry" />
        </mxCell>
        <mxCell id="OhdJKjMLPSLkUOPBoB3H-12" value="" style="shape=flexArrow;endArrow=classic;html=1;rounded=0;fontFamily=Times New Roman;fontSize=14;fillColor=#dae8fc;strokeColor=none;" edge="1" parent="1">
          <mxGeometry x="0.5" y="-240" width="50" height="50" relative="1" as="geometry">
            <mxPoint x="2510" y="-760" as="sourcePoint" />
            <mxPoint x="2510" y="-800" as="targetPoint" />
            <mxPoint as="offset" />
          </mxGeometry>
        </mxCell>
        <mxCell id="OhdJKjMLPSLkUOPBoB3H-16" value="&lt;span style=&quot;font-weight: normal;&quot;&gt;3.&amp;nbsp;面向交通状态评价的数据生成模型&lt;/span&gt;" style="rounded=1;whiteSpace=wrap;html=1;fillColor=#dae8fc;strokeColor=none;fontSize=16;fontStyle=1;flipH=0;flipV=0;fontFamily=Helvetica;" vertex="1" parent="1">
          <mxGeometry x="2830" y="-920" width="160" height="80" as="geometry" />
        </mxCell>
        <mxCell id="OhdJKjMLPSLkUOPBoB3H-20" value="&lt;span style=&quot;font-weight: normal;&quot;&gt;5. 基于主动学习的数据生成模型优化&lt;/span&gt;" style="rounded=1;whiteSpace=wrap;html=1;fillColor=#dae8fc;strokeColor=none;fontSize=16;fontStyle=1;flipH=0;flipV=0;fontFamily=Helvetica;" vertex="1" parent="1">
          <mxGeometry x="2921" y="-1010" width="160" height="80" as="geometry" />
        </mxCell>
        <mxCell id="OhdJKjMLPSLkUOPBoB3H-21" value="" style="shape=flexArrow;endArrow=classic;html=1;rounded=0;fontFamily=Times New Roman;fontSize=14;fillColor=#dae8fc;strokeColor=none;" edge="1" parent="1">
          <mxGeometry x="0.5" y="-240" width="50" height="50" relative="1" as="geometry">
            <mxPoint x="2920.8199999999997" y="-760.0000000000002" as="sourcePoint" />
            <mxPoint x="2920.8199999999997" y="-800.0000000000002" as="targetPoint" />
            <mxPoint as="offset" />
          </mxGeometry>
        </mxCell>
        <mxCell id="OhdJKjMLPSLkUOPBoB3H-25" value="交通检测数据&lt;br style=&quot;border-color: var(--border-color); font-size: 16px;&quot;&gt;补全的需求" style="rounded=1;whiteSpace=wrap;html=1;fontSize=16;fillColor=#d5e8d4;strokeColor=#82b366;" vertex="1" parent="1">
          <mxGeometry x="2590" y="-450" width="220" height="60" as="geometry" />
        </mxCell>
        <mxCell id="OhdJKjMLPSLkUOPBoB3H-26" value="交通状态评价的需求" style="rounded=1;whiteSpace=wrap;html=1;fontSize=16;fillColor=#d5e8d4;strokeColor=#82b366;" vertex="1" parent="1">
          <mxGeometry x="2310" y="-450" width="220" height="60" as="geometry" />
        </mxCell>
        <mxCell id="OhdJKjMLPSLkUOPBoB3H-27" value="补全数据与事实相符的需求" style="rounded=1;whiteSpace=wrap;html=1;fontSize=16;fillColor=#d5e8d4;strokeColor=#82b366;" vertex="1" parent="1">
          <mxGeometry x="2850" y="-450" width="220" height="60" as="geometry" />
        </mxCell>
        <mxCell id="OhdJKjMLPSLkUOPBoB3H-31" value="&lt;b&gt;数据鉴别器训练&lt;/b&gt;" style="rounded=0;whiteSpace=wrap;html=1;fontSize=16;fillColor=none;strokeColor=none;fontFamily=Times New Roman;" vertex="1" parent="1">
          <mxGeometry x="2290" y="-950" width="20" height="60" as="geometry" />
        </mxCell>
        <mxCell id="OhdJKjMLPSLkUOPBoB3H-32" value="&lt;b&gt;数据生成器训练与优化&lt;/b&gt;" style="rounded=0;whiteSpace=wrap;html=1;fontSize=16;fillColor=none;strokeColor=none;fontFamily=Times New Roman;" vertex="1" parent="1">
          <mxGeometry x="2719" y="-950" width="20" height="60" as="geometry" />
        </mxCell>
        <mxCell id="OhdJKjMLPSLkUOPBoB3H-35" value="" style="rounded=1;whiteSpace=wrap;html=1;fontFamily=Helvetica;fontSize=16;fillColor=none;dashed=1;" vertex="1" parent="1">
          <mxGeometry x="2281" y="-740" width="819" height="200" as="geometry" />
        </mxCell>
        <mxCell id="OhdJKjMLPSLkUOPBoB3H-40" value="&lt;span style=&quot;font-weight: normal;&quot;&gt;研究内容1：&lt;br&gt;基于有限数据的&lt;br&gt;全景式交通状态评价方法&lt;br&gt;&lt;/span&gt;" style="rounded=1;whiteSpace=wrap;html=1;fillColor=#dae8fc;strokeColor=none;fontSize=16;fontStyle=1;flipH=0;flipV=0;fontFamily=Helvetica;" vertex="1" parent="1">
          <mxGeometry x="2311" y="-690" width="220" height="100" as="geometry" />
        </mxCell>
        <mxCell id="OhdJKjMLPSLkUOPBoB3H-41" value="" style="shape=flexArrow;endArrow=classic;html=1;rounded=0;fontFamily=Times New Roman;fontSize=14;fillColor=#ffe6cc;strokeColor=none;" edge="1" parent="1">
          <mxGeometry x="0.5" y="-240" width="50" height="50" relative="1" as="geometry">
            <mxPoint x="2511" y="-490" as="sourcePoint" />
            <mxPoint x="2511" y="-530" as="targetPoint" />
            <mxPoint as="offset" />
          </mxGeometry>
        </mxCell>
        <mxCell id="OhdJKjMLPSLkUOPBoB3H-45" value="&lt;span style=&quot;font-weight: normal;&quot;&gt;研究内容2：&lt;br&gt;基于交通状态的数据生成模型&lt;/span&gt;" style="rounded=1;whiteSpace=wrap;html=1;fillColor=#dae8fc;strokeColor=none;fontSize=16;fontStyle=1;flipH=0;flipV=0;fontFamily=Helvetica;" vertex="1" parent="1">
          <mxGeometry x="2591" y="-690" width="220" height="100" as="geometry" />
        </mxCell>
        <mxCell id="OhdJKjMLPSLkUOPBoB3H-46" value="" style="shape=flexArrow;endArrow=classic;html=1;rounded=0;fontFamily=Times New Roman;fontSize=14;fillColor=#ffe6cc;strokeColor=none;" edge="1" parent="1">
          <mxGeometry x="0.5" y="-240" width="50" height="50" relative="1" as="geometry">
            <mxPoint x="2922" y="-490" as="sourcePoint" />
            <mxPoint x="2922" y="-530" as="targetPoint" />
            <mxPoint as="offset" />
          </mxGeometry>
        </mxCell>
        <mxCell id="OhdJKjMLPSLkUOPBoB3H-50" value="&lt;span style=&quot;font-weight: normal;&quot;&gt;研究内容3：&lt;br&gt;基于价值评估的数据生成模型优化技术&lt;br&gt;&lt;/span&gt;" style="rounded=1;whiteSpace=wrap;html=1;fillColor=#dae8fc;strokeColor=none;fontSize=16;fontStyle=1;flipH=0;flipV=0;fontFamily=Helvetica;" vertex="1" parent="1">
          <mxGeometry x="2851" y="-700" width="220" height="100" as="geometry" />
        </mxCell>
        <mxCell id="OhdJKjMLPSLkUOPBoB3H-52" value="交通理论模型和实际交通检测器数据支撑" style="rounded=1;whiteSpace=wrap;html=1;fontSize=16;" vertex="1" parent="1">
          <mxGeometry x="2170" y="-810" width="40" height="270" as="geometry" />
        </mxCell>
        <mxCell id="OhdJKjMLPSLkUOPBoB3H-53" value="生成模型相关技术研究现状" style="rounded=1;whiteSpace=wrap;html=1;fontSize=16;" vertex="1" parent="1">
          <mxGeometry x="3164" y="-810" width="40" height="270" as="geometry" />
        </mxCell>
        <mxCell id="OhdJKjMLPSLkUOPBoB3H-55" value="面向交通状态评价的数据生成方法研究" style="rounded=1;whiteSpace=wrap;html=1;fontSize=16;fillColor=#f8cecc;strokeColor=#b85450;" vertex="1" parent="1">
          <mxGeometry x="2280" y="-1110" width="820" height="60" as="geometry" />
        </mxCell>
        <mxCell id="OhdJKjMLPSLkUOPBoB3H-56" value="" style="shape=flexArrow;endArrow=classic;startArrow=classic;html=1;rounded=0;fontSize=16;" edge="1" parent="1">
          <mxGeometry width="100" height="100" relative="1" as="geometry">
            <mxPoint x="2220" y="-584" as="sourcePoint" />
            <mxPoint x="2270" y="-584" as="targetPoint" />
          </mxGeometry>
        </mxCell>
        <mxCell id="OhdJKjMLPSLkUOPBoB3H-57" value="" style="shape=flexArrow;endArrow=classic;html=1;rounded=0;fontSize=16;" edge="1" parent="1">
          <mxGeometry width="50" height="50" relative="1" as="geometry">
            <mxPoint x="3156" y="-590.8299999999999" as="sourcePoint" />
            <mxPoint x="3116" y="-590.8299999999999" as="targetPoint" />
          </mxGeometry>
        </mxCell>
        <mxCell id="OhdJKjMLPSLkUOPBoB3H-59" value="&lt;span style=&quot;font-weight: normal;&quot;&gt;4. 基于数据评估的自动化数据收集&lt;/span&gt;" style="rounded=1;whiteSpace=wrap;html=1;fillColor=#dae8fc;strokeColor=none;fontSize=16;fontStyle=1;flipH=0;flipV=0;fontFamily=Helvetica;" vertex="1" parent="1">
          <mxGeometry x="2749" y="-1010" width="160" height="80" as="geometry" />
        </mxCell>
      </root>
    </mxGraphModel>
  </diagram>
</mxfile>
